<svg xmlns="http://www.w3.org/2000/svg" width="24" height="24" viewBox="0 0 24 24" fill="none" stroke="#10B981" stroke-width="2" stroke-linecap="round" stroke-linejoin="round">
  <circle cx="12" cy="12" r="10"/>
  <path d="M12 2a4.2 4.2 0 0 0-4 6"/>
  <path d="M12 2a4.2 4.2 0 0 1 4 6"/>
  <path d="M16 8.5c.6 0 1 .4 1 1v2a2 2 0 0 1-2 2h-2v-2a2 2 0 0 0-2-2h0a2 2 0 0 0-2 2v2H7a2 2 0 0 1-2-2v-2c0-.6.4-1 1-1"/>
  <path d="M8 17.5c-.6 0-1-.4-1-1v-2a2 2 0 0 1 2-2h2v2a2 2 0 0 0 2 2h0a2 2 0 0 0 2-2v-2h2a2 2 0 0 1 2 2v2c0 .6-.4 1-1 1"/>
</svg>